@startuml
'https://plantuml.com/class-diagram
skinparam classAttributeIconSize 0

class Game.MonopolyGame {

}

class Game.Player {
    -name: String
    -account: Game.Account
    -field: Game.Field
    +movePlayer()
    +collectStartBonus()
}

class Game.Board {
    -field: Game.Field[]
}

class Game.Field {
    #name: String
    +landOnField()
}

class Game.Account {
    {static}-startingBalance: Int
    -balance: Int
    +deposit()
    +withdraw()
    +transfer()
}

class Game.Die {
    -faceValue: Int
    +roll()
}

class Game.ChanceCard {
    -text: String
    +effect()
}

class StartField {
    -startBonus: Int

}

class Game.AmusementField {
    -owner: String
    -price: Int
    +setOwner()
}

class Game.ChanceField {
    -chanceCard: Game.ChanceCard[]
    +drawChanceCard()
}

class Game.Jail {
    +goToJail()
    +releaseFromJail()
}

class FreeParking {

}

class VisitJail {

}

Game.MonopolyGame "1" *-- "1" Game.Board
Game.MonopolyGame "1" *-- "1" Game.Die
Game.MonopolyGame "1" *-- "2..4" Game.Player
Game.Player "1" *-- "1" Game.Account
Game.Board "1" *-- "24" Game.Field
Game.Field <|--- StartField
Game.Field <|--- Game.AmusementField
Game.Field <|--- Game.ChanceField
Game.Field <|--- Game.Jail
Game.Field <|--- FreeParking
Game.Field <|--- VisitJail
Game.ChanceCard - Game.ChanceField


@enduml